<svg version="1.1" id="Layer_1" xmlns="http://www.w3.org/2000/svg" x="0px" y="0px" viewBox="0 0 384 439" enable-background="new 0 0 384 439" xml:space="preserve">
	<path fill="#DDB428" opacity="1.000000" stroke="none"
	d="
M193.250000,440.000000
	C173.642380,428.689667 154.285950,417.377319 134.925858,406.071198
	C131.820084,404.257416 128.595901,402.619446 125.646217,400.582031
	C124.775612,399.980713 123.952301,397.980896 124.314705,397.146179
	C126.271004,392.640686 128.606964,388.300079 131.046494,383.434967
	C139.951950,388.550720 148.437714,393.397614 156.896393,398.291351
	C168.090271,404.767487 179.199722,411.394714 190.516464,417.647522
	C192.118958,418.532928 195.123505,418.434937 196.743362,417.507294
	C236.477722,394.752502 276.111053,371.821320 315.765778,348.927399
	C332.068207,339.515533 348.399902,330.153748 364.637451,320.631317
	C365.748474,319.979767 366.832794,318.171417 366.834839,316.899292
	C366.940918,250.913483 366.928345,184.927475 366.928345,118.673592
	C313.368896,87.781960 259.809875,56.890572 205.924698,25.811071
	C165.161942,111.128250 124.569458,196.089066 83.850792,281.313965
	C102.923119,281.313965 121.613174,281.313965 140.222488,281.313965
	C169.482635,218.313416 198.523224,155.785599 228.145950,92.004395
	C262.770630,161.663528 296.732635,229.989487 331.071960,299.074554
	C328.020630,299.074554 326.206390,299.074158 324.392120,299.074554
	C269.566162,299.086975 214.740082,299.147400 159.914474,299.015289
	C155.808868,299.005402 153.764267,300.334747 151.964615,303.969360
	C138.085205,332.000458 123.985222,359.922363 109.947090,387.874847
	C109.582359,388.601166 109.142967,389.289948 108.343437,390.685699
	C75.429459,371.720306 42.699448,352.860931 9.452178,333.630371
	C2.883575,331.052551 1.869989,326.675781 1.892128,320.538635
	C2.140172,251.780426 2.046606,183.020981 2.063079,114.261856
	C2.063513,112.448639 2.268329,110.635468 2.585276,108.710373
	C2.792719,108.598480 2.913257,108.142761 2.952147,108.110962
	C2.991036,108.079155 3.129240,107.934532 3.389780,107.887489
	C3.782292,107.723244 3.914264,107.606041 4.344677,107.410110
	C6.207017,106.262238 7.770916,105.193100 9.533749,104.107262
	C9.732681,104.090561 10.003098,103.796814 10.316280,103.800682
	C11.399900,103.209206 12.170339,102.613869 12.978863,102.017380
	C13.016949,102.016228 13.020655,101.940109 13.361225,101.890320
	C15.798918,100.548958 17.896040,99.257378 20.301979,97.936340
	C21.075409,97.562973 21.540020,97.219055 22.345886,96.835281
	C24.735332,95.520805 26.783522,94.246185 28.895706,92.987839
	C28.959700,93.004112 28.987856,92.875084 29.250185,92.877838
	C29.685097,92.599739 29.857677,92.318893 30.346951,92.013245
	C31.112703,91.645805 31.561760,91.303169 32.301254,90.941376
	C33.195312,90.532463 33.798935,90.142723 34.531128,89.739655
	C34.659702,89.726334 34.854523,89.556396 35.147087,89.461746
	C36.781940,88.488876 38.124233,87.610657 39.559807,86.709152
	C39.653091,86.685852 39.816673,86.584747 40.119999,86.498741
	C41.615353,85.601501 42.807381,84.790260 44.307796,83.944916
	C45.076374,83.559967 45.536564,83.209106 46.332977,82.832031
	C48.112904,81.864952 49.556614,80.924088 51.313919,79.949600
	C52.083885,79.576927 52.540249,79.237885 53.342548,78.858780
	C56.218601,77.251648 58.748726,75.684570 61.495575,74.122116
	C61.712307,74.126732 62.002052,73.804214 62.321411,73.795395
	C63.425476,73.178673 64.210175,72.570763 65.300133,71.931885
	C66.068634,71.558205 66.531883,71.215477 67.311447,70.861542
	C68.417984,70.224724 69.208199,69.599106 70.316818,68.954315
	C71.100044,68.600563 71.564857,68.265976 72.369263,67.866562
	C75.218033,66.235977 77.727211,64.670219 80.460205,63.106037
	C80.684021,63.107616 81.002815,62.793350 81.345894,62.785820
	C83.551353,61.557484 85.413734,60.336678 87.491791,59.120979
	C87.707481,59.126087 88.002075,58.810810 88.320541,58.794640
	C89.864578,58.049335 91.090149,57.320198 92.396149,56.567631
	C92.476593,56.544197 92.603172,56.434399 92.764732,56.367790
	C93.126663,56.166584 93.270355,55.986706 93.487381,55.737961
	C93.617386,55.714367 93.797165,55.520683 94.080482,55.366943
	C95.997643,54.180363 97.631485,53.147526 99.484085,52.117950
	C99.702850,52.121216 100.002403,51.802258 100.320999,51.796516
	C101.426094,51.184849 102.212601,50.578918 103.310150,49.942337
	C104.080986,49.571743 104.540771,49.231808 105.334541,48.853336
	C107.549591,47.760193 109.430656,46.705585 111.431107,45.622406
	C111.550484,45.593830 111.694260,45.394833 111.841583,45.333595
	C112.173943,45.147919 112.295662,44.978096 112.488922,44.739433
	C112.623772,44.715977 112.805717,44.511448 113.083694,44.365826
	C114.560249,43.488258 115.758820,42.756310 116.989746,42.022911
	C117.022110,42.021461 117.025902,41.956787 117.365166,41.881973
	C120.217125,40.241329 122.729820,38.675499 125.465126,37.111053
	C125.687737,37.112442 126.003548,36.798607 126.337921,36.789474
	C128.271515,35.766407 129.870712,34.752472 131.564484,33.695129
	C131.659027,33.651718 131.802887,33.501396 132.049561,33.357719
	C132.869415,32.815620 133.442596,32.417198 134.332809,31.989029
	C135.103653,31.627367 135.557465,31.295454 136.352463,30.912817
	C138.919601,29.490778 141.145554,28.119463 143.506226,26.745922
	C143.640930,26.743696 143.849808,26.573483 144.149658,26.490974
	C145.613739,25.609529 146.777954,24.810593 147.976532,24.011108
	C148.010895,24.010563 148.013596,23.941874 148.351532,23.880974
	C150.790924,22.537384 152.892395,21.254696 155.311981,19.945623
	C156.090698,19.592514 156.551270,19.265791 157.349182,18.877010
	C159.562714,17.585140 161.438889,16.355328 163.525696,15.131857
	C163.736313,15.138199 164.002335,14.811337 164.345917,14.779272
	C166.919144,13.414042 169.148804,12.080877 171.492615,10.709538
	C171.606796,10.671364 171.756912,10.483131 172.035233,10.296644
	C173.410873,9.781822 174.508209,9.453487 176.091751,8.979670
	C171.926788,18.086994 168.060516,26.541161 164.033035,35.142208
	C163.871826,35.289085 163.874435,35.725246 163.581299,35.783318
	C162.895233,36.226379 162.502289,36.611370 162.054779,36.992149
	C162.000214,36.987934 161.989441,37.096825 161.651657,37.142826
	C159.082489,38.543720 156.851089,39.898617 154.501770,41.282608
	C154.383850,41.311703 154.217682,41.488922 153.971039,41.630264
	C153.166885,42.179432 152.609360,42.587261 152.021423,42.993454
	C151.990982,42.991821 151.993546,43.052734 151.669205,43.080097
	C150.501862,43.708679 149.658844,44.309898 148.585693,44.917580
	C148.355530,44.924042 147.998688,45.215099 147.742264,45.170689
	C147.309616,45.398579 147.133392,45.670879 146.640839,45.967407
	C145.868240,46.329933 145.411987,46.668232 144.640717,47.052841
	C143.086029,47.815784 141.846359,48.532413 140.496918,49.297852
	C140.387131,49.346661 140.256271,49.548195 140.002808,49.725494
	C138.371216,50.693050 136.993073,51.483307 135.506531,52.301445
	C135.398132,52.329327 135.237198,52.484890 134.955750,52.633278
	C133.470901,53.521172 132.267471,54.260674 131.030502,54.998737
	C130.996948,54.997303 130.998215,55.064457 130.666183,55.117596
	C128.888397,56.116142 127.442642,57.061554 125.688324,58.049805
	C124.920052,58.435951 124.460335,58.779247 123.659096,59.162148
	C121.231277,60.465187 119.144981,61.728626 117.024925,62.992123
	C116.991158,62.992180 116.990417,63.059711 116.654556,63.142620
	C114.257095,64.489433 112.195503,65.753342 110.078499,67.006393
	C110.023079,66.995529 110.003731,67.106812 109.670273,67.155029
	C107.895943,68.151192 106.455078,69.099144 104.707199,70.075714
	C103.934929,70.447853 103.469666,70.791374 102.656555,71.164261
	C99.212921,73.150688 96.117134,75.107750 92.716660,77.092621
	C91.944214,77.460037 91.476471,77.799660 90.674553,78.160034
	C88.915482,79.118324 87.490570,80.055870 86.029381,80.993774
	C85.993095,80.994133 85.991531,81.066689 85.656128,81.143906
	C83.266121,82.489502 81.211525,83.757881 78.858032,85.059784
	C78.372032,85.165359 78.184914,85.237427 77.758003,85.241364
	C77.200020,85.551476 76.881844,85.929703 76.492706,86.353020
	C76.421753,86.398109 76.300690,86.514793 76.049911,86.673607
	C75.200233,87.228981 74.601341,87.625534 73.689163,88.055283
	C72.919136,88.421890 72.462410,88.755318 71.670494,89.135651
	C69.895470,90.139969 68.455620,91.097374 66.703247,92.076630
	C65.929573,92.437195 65.468414,92.775902 64.668625,93.166626
	C62.303631,94.498566 60.277252,95.778496 58.166740,97.026215
	C58.082607,96.993996 58.025379,97.164848 57.691311,97.205139
	C55.936905,98.164345 54.516571,99.083267 53.050484,99.997635
	C53.004730,99.993073 52.994995,100.084518 52.660034,100.117599
	C50.898190,101.097755 49.471306,102.044815 47.741341,103.045288
	C46.958305,103.456963 46.478359,103.815239 45.681160,104.167892
	C44.575455,104.782364 43.786995,105.402458 42.681988,106.053131
	C41.907753,106.421936 41.450066,106.760162 40.661472,107.139847
	C38.886356,108.126213 37.442146,109.071121 35.681633,110.042679
	C34.907452,110.404961 34.449570,110.740593 33.659519,111.123260
	C31.887506,112.126709 30.447666,113.083138 28.688923,114.056419
	C27.912598,114.409485 27.455173,114.745689 26.684784,115.132721
	C25.581480,115.797272 24.791143,116.411018 23.687401,117.050774
	C22.913824,117.420166 22.453655,117.763550 21.586224,118.169411
	C20.809858,120.083191 20.119751,121.934212 20.118132,123.785828
	C20.063147,186.716202 20.157784,249.646942 19.932140,312.576538
	C19.911642,318.292694 21.642300,321.486877 27.127144,323.157654
	C27.845901,323.610229 28.424786,323.787354 29.070673,324.244843
	C29.817833,324.851074 30.497990,325.176941 31.269703,325.603119
	C31.361259,325.703430 31.629377,325.746765 31.819290,325.946899
	C32.670353,326.416138 33.331505,326.685242 34.087395,327.257202
	C34.785042,327.708771 35.387951,327.857513 36.066757,328.285217
	C36.831234,328.881561 37.519806,329.198853 38.292435,329.599121
	C38.376492,329.682037 38.606686,329.734772 38.788628,329.948425
	C39.634430,330.431152 40.298286,330.700226 41.062649,331.269836
	C41.761189,331.741882 42.359222,331.913330 43.042103,332.356110
	C43.815186,332.920502 44.503418,333.213531 45.273491,333.591248
	C45.355331,333.675903 45.582516,333.737915 45.809029,333.966980
	C48.351452,335.445068 50.667366,336.694092 52.985107,337.978149
	C52.986938,338.013214 53.057171,338.014343 53.157631,338.333313
	C54.838329,339.396545 56.418568,340.140778 58.121117,341.173157
	C58.832134,341.625641 59.420834,341.790009 60.087822,342.239410
	C60.869087,342.837128 61.572067,343.149841 62.360657,343.574677
	C62.446266,343.686829 62.724686,343.732788 62.899368,343.863373
	C63.074047,343.993958 63.497490,344.102081 63.497490,344.102081
	C63.497490,344.102081 63.934372,344.090271 63.967110,344.045135
	C63.999847,344.000000 63.934010,344.091309 64.072769,344.406555
	C66.805733,346.114807 69.399933,347.507812 72.101379,349.197449
	C72.802597,349.663666 73.396568,349.833282 74.065224,350.280823
	C74.823090,350.879242 75.506279,351.199799 76.279861,351.613281
	C76.370270,351.706238 76.625870,351.750183 76.759933,351.933685
	C77.261841,352.294647 77.629692,352.472107 78.250290,352.777405
	C78.689041,352.937775 78.875053,352.970306 79.157227,353.316345
	C80.564537,354.279449 81.875702,354.929047 83.283470,355.656738
	C83.380074,355.734802 83.627495,355.757111 83.761559,355.942444
	C84.262993,356.306061 84.630371,356.484344 85.252113,356.785553
	C85.692322,356.939117 85.878174,356.969696 86.134354,357.282959
	C86.899086,357.884277 87.593483,358.202911 88.359413,358.587463
	C88.430946,358.653320 88.612251,358.723663 88.845963,358.940247
	C91.118805,360.281952 93.157936,361.407074 95.283752,362.613617
	C95.370445,362.695007 95.603378,362.743103 95.826553,362.948669
	C97.718773,363.452301 99.387810,363.750427 101.351807,363.939209
	C101.755669,363.220123 101.864578,362.610382 102.311874,361.882141
	C104.025909,358.843170 105.401550,355.922729 106.917343,352.816589
	C107.057487,352.630890 107.077354,352.166016 107.379684,352.008820
	C108.377670,350.235596 109.073318,348.619537 109.904457,346.808716
	C110.039955,346.613892 110.072510,346.140442 110.362877,346.010437
	C111.017311,344.921661 111.381386,343.962891 111.849037,342.774658
	C111.980988,342.379730 112.009354,342.214264 112.331390,341.935730
	C113.002388,340.883057 113.379730,339.943451 113.942429,338.701538
	C115.104820,336.304504 116.081863,334.209778 117.365860,331.967163
	C118.371208,330.213898 119.069603,328.608612 119.948639,326.737793
	C120.449326,325.711823 120.769363,324.951385 121.395706,324.013489
	C122.729240,321.558380 123.756462,319.280762 124.930603,316.826599
	C125.077522,316.649994 125.089470,316.190735 125.377945,316.050385
	C126.017731,314.941650 126.369041,313.973236 126.807892,312.756104
	C126.933670,312.335754 126.971909,312.164154 127.305054,311.883179
	C128.006546,310.849945 128.413132,309.926117 128.982941,308.876770
	C129.146149,308.751312 129.129776,308.339905 129.417801,308.159973
	C130.323029,306.573730 130.940247,305.167450 131.646606,303.659973
	C131.735764,303.558777 131.741852,303.289154 131.874435,303.116150
	C132.127106,302.670929 132.176804,302.386414 132.098114,302.044617
	C132.040131,301.999634 132.129517,302.116058 132.471664,301.879395
	C133.980392,297.518066 130.602097,299.203308 129.276505,299.197083
	C105.190491,299.083832 81.103806,299.113586 57.025993,299.046661
	C57.034718,298.980438 56.903965,298.952972 56.916546,298.633606
	C57.131813,297.723755 57.334499,297.133331 57.551613,296.486694
	C57.566032,296.430481 57.603844,296.320801 57.735878,296.102600
	C58.095047,295.259247 58.322186,294.634064 58.724571,293.736816
	C58.921875,293.250092 58.943932,293.035431 59.263611,292.698547
	C59.962940,291.385681 60.364643,290.195038 60.948174,288.725403
	C61.433765,287.648010 61.737530,286.849670 62.365292,285.898376
	C64.564400,281.558777 66.439507,277.372040 68.244614,273.144897
	C68.174606,273.104492 68.262932,273.239899 68.510574,273.073730
	C68.968834,272.350708 69.179451,271.793884 69.322479,271.191101
	C69.254898,271.145203 69.327873,271.291412 69.559097,271.092773
	C69.933807,270.302704 70.077293,269.711212 70.159447,269.084473
	C70.098122,269.049194 70.176033,269.167297 70.444061,269.034180
	C70.936958,268.348267 71.161842,267.795502 71.314812,267.183411
	C71.242905,267.124115 71.327919,267.290009 71.560120,267.088379
	C71.926620,266.287811 72.060921,265.688843 72.453339,264.967346
	C72.837334,264.294403 72.963219,263.744019 73.400528,263.009979
	C75.466400,258.887390 77.220848,254.948410 78.992035,251.008331
	C79.008789,251.007233 79.003342,250.974106 79.314323,250.824982
	C80.180534,249.173111 80.735771,247.670364 81.224342,246.131714
	C81.157684,246.095795 81.239853,246.222992 81.506226,246.024063
	C82.438904,244.218307 83.105209,242.611481 83.959862,240.735870
	C84.452003,239.680634 84.755798,238.894180 85.377747,237.945435
	C86.964455,235.087128 88.233002,232.391159 89.592056,229.605103
	C89.682564,229.515030 89.703560,229.260529 89.804352,229.070953
	C89.942429,228.597733 89.975433,228.313583 90.006607,228.019806
	C90.009056,228.010651 90.026428,228.003189 90.305229,227.902313
	C90.894829,227.092438 91.205627,226.383438 91.588333,225.588058
	C91.660248,225.501678 91.675858,225.277435 91.796791,224.979156
	C92.364952,223.498764 92.812187,222.316635 93.207672,221.111191
	C93.155922,221.087875 93.195892,221.194122 93.484131,220.993805
	C95.103325,217.863419 96.434265,214.933350 97.891975,211.799164
	C98.018745,211.595047 98.063034,211.116547 98.369995,210.965027
	C99.363693,209.210022 100.050430,207.606537 100.830933,205.765442
	C100.957367,205.360687 100.990013,205.193542 101.318466,204.913971
	C101.982803,203.869003 102.351334,202.936462 102.815079,201.754684
	C102.941521,201.330338 102.972740,201.155228 103.289528,200.860352
	C103.898186,199.994080 104.221283,199.247574 104.541595,198.455811
	C104.538811,198.410553 104.569412,198.325195 104.728340,198.050903
	C105.404282,196.626099 105.921295,195.475586 106.293785,194.344391
	C106.149261,194.363693 106.431274,194.300980 106.629646,194.075104
	C106.942329,193.258560 107.056641,192.667892 107.439346,191.952789
	C107.824669,191.253784 107.941612,190.679214 108.350830,189.980026
	C109.010864,188.905090 109.378639,187.954742 109.856812,186.780090
	C109.993057,186.391113 110.018898,186.226440 110.367630,185.909927
	C112.294891,182.407288 113.899261,179.056503 115.586823,175.615204
	C115.670013,175.524689 115.683990,175.279236 115.805878,174.969208
	C116.699409,172.815521 117.471062,170.971848 118.187607,169.103455
	C118.132507,169.078735 118.187012,169.186523 118.470711,169.011917
	C119.432892,167.225769 120.111382,165.614227 120.935883,163.827713
	C121.081902,163.652740 121.089523,163.197021 121.401649,163.011200
	C124.917618,155.921951 128.121460,149.018539 131.572525,141.904984
	C132.593094,139.926254 133.366440,138.157669 134.435730,136.164337
	C136.907394,131.005341 139.083130,126.071083 141.207199,121.116791
	C141.155548,121.096741 141.195435,121.200127 141.483643,121.011276
	C142.595612,118.924782 143.419373,117.027153 144.187576,115.101059
	C144.132004,115.072594 144.187607,115.184402 144.479401,114.979980
	C147.339127,109.223854 149.907059,103.672157 152.670120,97.885780
	C153.281494,96.519402 153.697739,95.387703 154.413223,94.083595
	C155.245728,92.648468 155.778992,91.385765 156.546906,89.958542
	C156.873337,89.230591 156.965149,88.667145 157.376968,87.945229
	C160.037796,82.859077 162.378616,77.931404 164.828094,72.705093
	C164.943359,72.194702 164.949951,71.982941 165.247955,71.636414
	C165.979935,70.331161 166.420486,69.160675 166.935211,67.968857
	C167.009354,67.947533 166.962646,67.800453 167.240509,67.712128
	C167.857773,66.932053 168.197174,66.240311 168.562103,65.485855
	C168.587631,65.423134 168.619049,65.291405 168.741577,65.103806
	C168.950546,64.616585 168.934540,64.322525 168.977478,63.894890
	C169.138885,63.755733 169.126144,63.329708 169.427139,63.122025
	C172.771591,56.273182 175.815048,49.632027 178.935394,42.966492
	C179.012299,42.942120 178.959930,42.789516 179.277176,42.644783
	C183.158020,34.722382 186.721634,26.944721 190.215714,19.127270
	C190.146194,19.087482 190.236862,19.219553 190.488922,19.075653
	C190.986496,18.406120 191.232040,17.880487 191.387329,17.390898
	C191.297073,17.426941 191.460938,17.323132 191.645660,17.086336
	C191.930389,16.257772 192.030396,15.666003 192.438629,14.903193
	C194.831253,10.154768 196.915634,5.577387 199.000000,1.000003
	C199.444443,1.000000 199.888901,1.000000 200.387299,1.302640
	C200.649368,1.864985 200.804749,2.215308 201.073120,2.371509
	C224.280640,15.878467 247.469315,29.418203 270.719482,42.851467
	C300.348358,59.970181 330.007751,77.036461 359.697662,94.049080
	C368.053040,98.836792 376.561676,103.357063 385.000000,108.000000
	C385.000000,181.687561 385.000000,255.375122 384.633728,329.537323
	C383.958740,330.108887 383.618988,330.152130 383.345734,330.310364
	C345.018188,352.499573 306.694061,374.694641 268.373108,396.895233
	C243.579468,411.258972 218.790863,425.631439 194.000000,440.000000
	C194.000000,440.000000 193.500000,440.000000 193.250000,440.000000
M207.547989,177.046951
	C192.101929,211.650970 176.655853,246.254974 161.101196,281.102295
	C207.888596,281.102295 254.235291,281.102295 300.869476,281.102295
	C276.556915,231.197983 252.424774,181.664062 227.909302,131.343262
	C221.027161,146.944977 214.522995,161.689819 207.547989,177.046951
z"/>
</svg>